# xmcd
#
# Track frame offsets:
#	187
#	9187
#	24112
#	34237
#	46087
#	61687
#	69937
#	83850
#	90787
#	103837
#	112987
#	127462
#
# Disc length: 1784 seconds
# Revision: 1
# Processed by: cddbd v1.5.2PL0 Copyright (c) Steve Scherf et al.
# Submitted via: dBpowerAMP V12.0
#
DISCID=8506f60c
DTITLE=Riders In The Sky - Three On The Trail [ROUNDER CD 0102]
DYEAR=1991
DGENRE=Country
TTITLE0=Three On The Trail
TTITLE1=Ghost Riders In The Sky
TTITLE2=That's How The Yodel Was Born
TTITLE3=Don't Fence Me In
TTITLE4=Blue Montana Skies
TTITLE5=When Payday Rolls Around
TTITLE6=Cowboy Song
TTITLE7=Skyball Paint
TTITLE8=Blue Bonnet Lady
TTITLE9=Cielito Lindo
TTITLE10=Here Comes The Santa Fe
TTITLE11=So Long Saddle Pals
EXTD=
EXTT0=
EXTT1=
EXTT2=
EXTT3=
EXTT4=
EXTT5=
EXTT6=
EXTT7=
EXTT8=
EXTT9=
EXTT10=
EXTT11=
PLAYORDER=
